<?xml version="1.0" encoding="UTF-8" standalone="no"?>
<!-- Created with Inkscape (http://www.inkscape.org/) -->

<svg
   xmlns:dc="http://purl.org/dc/elements/1.1/"
   xmlns:cc="http://creativecommons.org/ns#"
   xmlns:rdf="http://www.w3.org/1999/02/22-rdf-syntax-ns#"
   xmlns:svg="http://www.w3.org/2000/svg"
   xmlns="http://www.w3.org/2000/svg"
   xmlns:sodipodi="http://sodipodi.sourceforge.net/DTD/sodipodi-0.dtd"
   xmlns:inkscape="http://www.inkscape.org/namespaces/inkscape"
   id="svg3884"
   version="1.1"
   inkscape:version="0.48.4 r9939"
   width="650.82928"
   height="300.14297"
   xml:space="preserve"
   sodipodi:docname="JoblyLogo (1).svg"><metadata
     id="metadata3890"><rdf:RDF><cc:Work
         rdf:about=""><dc:format>image/svg+xml</dc:format><dc:type
           rdf:resource="http://purl.org/dc/dcmitype/StillImage" /><dc:title></dc:title></cc:Work></rdf:RDF></metadata><defs
     id="defs3888"><clipPath
       clipPathUnits="userSpaceOnUse"
       id="clipPath3898"><path
         d="M 0,0 792,0 792,612 0,612 0,0 z"
         id="path3900"
         inkscape:connector-curvature="0" /></clipPath></defs><sodipodi:namedview
     pagecolor="#ffffff"
     bordercolor="#666666"
     borderopacity="1"
     objecttolerance="10"
     gridtolerance="10"
     guidetolerance="10"
     inkscape:pageopacity="0"
     inkscape:pageshadow="2"
     inkscape:window-width="1920"
     inkscape:window-height="1003"
     id="namedview3886"
     showgrid="false"
     fit-margin-top="0"
     fit-margin-left="0"
     fit-margin-right="0"
     fit-margin-bottom="0"
     inkscape:zoom="1.6"
     inkscape:cx="363.99344"
     inkscape:cy="163.49457"
     inkscape:window-x="-9"
     inkscape:window-y="-9"
     inkscape:window-maximized="1"
     inkscape:current-layer="g3892" /><g
     id="g3892"
     inkscape:groupmode="layer"
     inkscape:label="JoblyLogo (1)"
     transform="matrix(1.25,0,0,-1.25,-131.00656,519.14841)"><g
       id="g3894"
       transform="matrix(1.5352553,0,0,1.5352553,-239.23533,-174.52651)"><g
         id="g3896"
         clip-path="url(#clipPath3898)"><g
           id="g3902"
           transform="translate(338.1934,297.8965)"><path
             d="m 0,0 c 0,12.281 -7.864,20.836 -17.524,20.836 -9.659,0 -17.525,-8.555 -17.525,-20.836 0,-12.005 7.866,-20.283 17.525,-20.283 C -7.864,-20.283 0,-12.005 0,0 m 18.353,0.139 c 0,-21.25 -16.145,-37.119 -35.877,-37.119 -19.733,0 -35.739,15.869 -35.739,37.119 0,21.249 16.006,37.394 35.739,37.394 19.732,0 35.877,-16.145 35.877,-37.394"
             style="fill:#37ade2;fill-opacity:1;fill-rule:nonzero;stroke:none"
             id="path3904"
             inkscape:connector-curvature="0" /></g><g
           id="g3906"
           transform="translate(399.7617,318.3198)"><path
             d="m 0,0 c -10.073,0 -18.215,-9.107 -18.215,-20.423 0,-11.04 8.142,-20.007 18.215,-20.007 10.073,0 18.215,8.693 18.215,20.007 C 18.215,-8.831 10.073,0 0,0 m 2.621,-57.266 c -8.555,0 -16.143,3.312 -21.663,9.108 l 0,-7.59 -17.524,0 0,102.663 18.351,0 0,-38.36 c 5.382,5.243 12.695,8.279 20.836,8.279 18.629,0 33.807,-16.007 33.807,-37.119 0,-20.974 -15.178,-36.981 -33.807,-36.981"
             style="fill:#37ade2;fill-opacity:1;fill-rule:nonzero;stroke:none"
             id="path3908"
             inkscape:connector-curvature="0" /></g><path
           d="m 460.721,262.572 -18.215,0 0,102.663 18.215,0 0,-102.663 z"
           style="fill:#37ade2;fill-opacity:1;fill-rule:nonzero;stroke:none"
           id="path3910"
           inkscape:connector-curvature="0" /><g
           id="g3912"
           transform="translate(533.1465,259.6748)"><path
             d="m 0,0 c 0,-19.18 -12.555,-31.875 -31.599,-31.875 -15.591,0 -28.425,10.211 -30.908,24.838 l 18.903,0 c 1.105,-5.244 5.796,-7.866 12.005,-7.866 9.937,0 13.386,7.037 13.386,13.662 l 0,8.278 c -4.278,-3.587 -9.798,-5.796 -16.282,-5.796 -17.387,0 -28.979,12.557 -28.979,31.187 l 0,41.533 18.215,0 0,-41.533 c 0,-4.002 1.379,-13.939 13.247,-13.939 8.142,0 13.799,5.934 13.799,13.939 l 0,41.533 L 0,73.961 0,0 z"
             style="fill:#37ade2;fill-opacity:1;fill-rule:nonzero;stroke:none"
             id="path3914"
             inkscape:connector-curvature="0" /></g><g
           id="g3916"
           transform="translate(269.9839,351.8906)"><path
             d="M 0,0 -13.44,0.025 -13.433,3.473 -1.944,3.453 4.297,13.801 7.25,12.018 0,0 z"
             style="fill:#37ade2;fill-opacity:1;fill-rule:nonzero;stroke:none"
             id="path3918"
             inkscape:connector-curvature="0" /></g><g
           id="g3920"
           transform="translate(260.2061,369.4551)"><path
             d="M 0,0 -4.628,0.016 -2.35,4.045 2.278,4.029 0,0 z M -8.92,14.745 -23.424,-10.904 6.042,-11.007 20.546,14.642 -8.92,14.745 z"
             style="fill:#37ade2;fill-opacity:1;fill-rule:nonzero;stroke:none"
             id="path3922"
             inkscape:connector-curvature="0" /></g><g
           id="g3924"
           transform="translate(250.1904,360.5664)"><path
             d="M 0,0 11.497,6.961 13.282,4.011 3.454,-1.94 3.498,-14.025 0.048,-14.035 0,0 z"
             style="fill:#37ade2;fill-opacity:1;fill-rule:nonzero;stroke:none"
             id="path3926"
             inkscape:connector-curvature="0" /></g><g
           id="g3928"
           transform="translate(261.2114,348.5898)"><path
             d="m 0,0 0,-56.438 c 0,-6.484 -4,-12.97 -13.108,-12.97 -5.359,0 -8.943,2.316 -10.961,5.563 l -13.049,-12.95 c 5.434,-6.451 13.71,-10.414 24.01,-10.414 19.042,0 31.323,13.523 31.323,31.325 L 18.215,0 0,0 z"
             style="fill:#37ade2;fill-opacity:1;fill-rule:nonzero;stroke:none"
             id="path3930"
             inkscape:connector-curvature="0" /></g><g
           id="g3932"
           transform="translate(242.5566,235.2441)"><path
             d="m 0,0 -2.869,0 0,1.764 c -1.082,-1.294 -2.823,-2.046 -4.845,-2.046 -4.445,0 -7.925,3.716 -7.925,8.49 0,4.774 3.48,8.514 7.925,8.514 3.622,0 6.397,-2.046 7.409,-5.433 l -3.341,0 c -0.634,1.435 -2.187,2.61 -4.068,2.61 -2.706,0 -4.821,-2.586 -4.821,-5.691 0,-3.081 2.187,-5.668 4.962,-5.668 2.327,0 4.139,1.599 4.728,3.646 l -4.422,0 0,2.892 L 0,9.078 0,0 z"
             style="fill:#37ade2;fill-opacity:1;fill-rule:nonzero;stroke:none"
             id="path3934"
             inkscape:connector-curvature="0" /></g><g
           id="g3936"
           transform="translate(253.1953,242.6289)"><path
             d="M 0,0 C -0.376,1.411 -1.552,2.305 -3.035,2.305 -4.446,2.305 -5.575,1.411 -6.021,0 L 0,0 z m -6.068,-2.54 c 0.399,-1.482 1.577,-2.399 3.033,-2.399 1.035,0 2.047,0.447 2.565,1.411 l 3.317,0 C 2.139,-5.997 0,-7.667 -3.01,-7.667 c -3.412,0 -6.21,2.822 -6.21,6.326 0,3.505 2.798,6.374 6.21,6.374 3.574,0 6.538,-2.775 6.09,-7.573 l -9.148,0 z"
             style="fill:#37ade2;fill-opacity:1;fill-rule:nonzero;stroke:none"
             id="path3938"
             inkscape:connector-curvature="0" /></g><g
           id="g3940"
           transform="translate(263.2891,235.2676)"><path
             d="m 0,0 c -3.551,-0.376 -5.432,1.764 -5.432,5.08 l 0,4.257 -1.458,0 0,2.752 1.458,0 0,3.081 3.104,0 0,-3.081 2.189,0 0,-2.752 -2.189,0 0,-4.28 C -2.328,3.363 -1.551,2.728 0,2.822 L 0,0 z"
             style="fill:#37ade2;fill-opacity:1;fill-rule:nonzero;stroke:none"
             id="path3942"
             inkscape:connector-curvature="0" /></g><g
           id="g3944"
           transform="translate(288.9785,235.2441)"><path
             d="m 0,0 -3.105,0 0,7.079 c 0,0.706 -0.233,2.399 -2.257,2.399 -1.387,0 -2.352,-1.036 -2.352,-2.399 l 0,-7.079 -3.128,0 0,7.079 c 0,0.706 -0.21,2.399 -2.257,2.399 -1.365,0 -2.33,-1.036 -2.33,-2.399 l 0,-7.079 -3.127,0 0,12.111 2.988,0 0,-1.175 c 0.753,0.918 1.81,1.482 3.127,1.482 1.505,0 2.775,-0.635 3.622,-1.717 0.871,1.059 2.14,1.717 3.693,1.717 C -1.882,12.418 0,10.254 0,7.079 L 0,0 z"
             style="fill:#37ade2;fill-opacity:1;fill-rule:nonzero;stroke:none"
             id="path3946"
             inkscape:connector-curvature="0" /></g><g
           id="g3948"
           transform="translate(298.6782,241.2646)"><path
             d="m 0,0 c 0,2.093 -1.34,3.551 -2.988,3.551 -1.644,0 -2.986,-1.458 -2.986,-3.551 0,-2.046 1.342,-3.457 2.986,-3.457 C -1.34,-3.457 0,-2.046 0,0 m 3.127,0.024 c 0,-3.622 -2.751,-6.327 -6.115,-6.327 -3.362,0 -6.09,2.705 -6.09,6.327 0,3.622 2.728,6.373 6.09,6.373 3.364,0 6.115,-2.751 6.115,-6.373"
             style="fill:#37ade2;fill-opacity:1;fill-rule:nonzero;stroke:none"
             id="path3950"
             inkscape:connector-curvature="0" /></g><g
           id="g3952"
           transform="translate(309.3853,244.5811)"><path
             d="m 0,0 c -1.247,0.141 -2.282,0 -2.986,-0.753 -0.659,-0.683 -0.777,-1.669 -0.777,-2.634 l 0,-5.95 -3.105,0 0,12.112 2.964,0 0,-1.199 C -2.916,2.799 -1.458,3.246 0,3.01 L 0,0 z"
             style="fill:#37ade2;fill-opacity:1;fill-rule:nonzero;stroke:none"
             id="path3954"
             inkscape:connector-curvature="0" /></g><g
           id="g3956"
           transform="translate(318.0664,242.6289)"><path
             d="M 0,0 C -0.376,1.411 -1.552,2.305 -3.035,2.305 -4.446,2.305 -5.575,1.411 -6.021,0 L 0,0 z m -6.068,-2.54 c 0.399,-1.482 1.577,-2.399 3.033,-2.399 1.035,0 2.047,0.447 2.565,1.411 l 3.317,0 C 2.139,-5.997 0,-7.667 -3.01,-7.667 c -3.412,0 -6.21,2.822 -6.21,6.326 0,3.505 2.798,6.374 6.21,6.374 3.574,0 6.538,-2.775 6.09,-7.573 l -9.148,0 z"
             style="fill:#37ade2;fill-opacity:1;fill-rule:nonzero;stroke:none"
             id="path3958"
             inkscape:connector-curvature="0" /></g><g
           id="g3960"
           transform="translate(337.0552,241.2646)"><path
             d="m 0,0 c 0,2.093 -1.34,3.551 -2.988,3.551 -1.644,0 -2.986,-1.458 -2.986,-3.551 0,-2.046 1.342,-3.457 2.986,-3.457 C -1.34,-3.457 0,-2.046 0,0 m 3.127,0.024 c 0,-3.622 -2.751,-6.327 -6.115,-6.327 -3.362,0 -6.09,2.705 -6.09,6.327 0,3.622 2.728,6.373 6.09,6.373 3.364,0 6.115,-2.751 6.115,-6.373"
             style="fill:#37ade2;fill-opacity:1;fill-rule:nonzero;stroke:none"
             id="path3962"
             inkscape:connector-curvature="0" /></g><g
           id="g3964"
           transform="translate(351.3843,235.2441)"><path
             d="m 0,0 -2.963,0 0,1.104 c -0.753,-0.87 -1.812,-1.386 -3.081,-1.386 -2.871,0 -4.775,2.139 -4.775,5.315 l 0,7.078 3.105,0 0,-7.078 c 0,-0.682 0.235,-2.375 2.258,-2.375 1.388,0 2.351,1.034 2.351,2.375 l 0,7.078 3.105,0 L 0,0 z"
             style="fill:#37ade2;fill-opacity:1;fill-rule:nonzero;stroke:none"
             id="path3966"
             inkscape:connector-curvature="0" /></g><g
           id="g3968"
           transform="translate(358.9395,235.2676)"><path
             d="m 0,0 c -3.552,-0.376 -5.434,1.764 -5.434,5.08 l 0,4.257 -1.458,0 0,2.752 1.458,0 0,3.081 3.105,0 0,-3.081 2.186,0 0,-2.752 -2.186,0 0,-4.28 C -2.329,3.363 -1.554,2.728 0,2.822 L 0,0 z"
             style="fill:#37ade2;fill-opacity:1;fill-rule:nonzero;stroke:none"
             id="path3970"
             inkscape:connector-curvature="0" /></g><g
           id="g3972"
           transform="translate(374.4443,241.2646)"><path
             d="m 0,0 c 0,2.093 -1.341,3.551 -2.986,3.551 -1.648,0 -2.988,-1.458 -2.988,-3.551 0,-2.046 1.34,-3.457 2.988,-3.457 C -1.341,-3.457 0,-2.046 0,0 m 3.129,0.024 c 0,-3.622 -2.753,-6.327 -6.115,-6.327 -3.364,0 -6.092,2.705 -6.092,6.327 0,3.622 2.728,6.373 6.092,6.373 3.362,0 6.115,-2.751 6.115,-6.373"
             style="fill:#37ade2;fill-opacity:1;fill-rule:nonzero;stroke:none"
             id="path3974"
             inkscape:connector-curvature="0" /></g><g
           id="g3976"
           transform="translate(384.2817,247.3096)"><path
             d="m 0,0 0,-2.752 -2.188,0 0,-9.313 -3.105,0 0,9.313 -1.458,0 0,2.752 1.458,0 c 0.047,3.151 1.952,5.479 5.41,5.08 l 0,-2.916 C -1.366,2.28 -2.188,1.67 -2.188,0 L 0,0 z"
             style="fill:#37ade2;fill-opacity:1;fill-rule:nonzero;stroke:none"
             id="path3978"
             inkscape:connector-curvature="0" /></g><g
           id="g3980"
           transform="translate(397.0586,234.9619)"><path
             d="m 0,0 c -3.645,0 -6.256,2.821 -6.256,6.327 0,3.504 2.611,6.373 6.256,6.373 2.916,0 5.127,-1.646 5.833,-4.374 l -3.317,0 C 2.094,9.148 1.129,9.854 0,9.854 c -1.718,0 -3.105,-1.599 -3.105,-3.551 0,-1.906 1.387,-3.482 3.105,-3.482 1.153,0 2.139,0.706 2.54,1.554 l 3.316,0 C 5.15,1.623 2.94,0 0,0"
             style="fill:#37ade2;fill-opacity:1;fill-rule:nonzero;stroke:none"
             id="path3982"
             inkscape:connector-curvature="0" /></g><g
           id="g3984"
           transform="translate(412.375,241.2646)"><path
             d="m 0,0 c 0,2.093 -1.34,3.551 -2.988,3.551 -1.644,0 -2.986,-1.458 -2.986,-3.551 0,-2.046 1.342,-3.457 2.986,-3.457 C -1.34,-3.457 0,-2.046 0,0 m 3.127,0.024 c 0,-3.622 -2.751,-6.327 -6.115,-6.327 -3.362,0 -6.09,2.705 -6.09,6.327 0,3.622 2.728,6.373 6.09,6.373 3.364,0 6.115,-2.751 6.115,-6.373"
             style="fill:#37ade2;fill-opacity:1;fill-rule:nonzero;stroke:none"
             id="path3986"
             inkscape:connector-curvature="0" /></g><path
           d="m 419.859,235.244 -3.105,0 0,17.498 3.105,0 0,-17.498 z"
           style="fill:#37ade2;fill-opacity:1;fill-rule:nonzero;stroke:none"
           id="path3988"
           inkscape:connector-curvature="0" /><path
           d="m 425.082,235.244 -3.105,0 0,17.498 3.105,0 0,-17.498 z"
           style="fill:#37ade2;fill-opacity:1;fill-rule:nonzero;stroke:none"
           id="path3990"
           inkscape:connector-curvature="0" /><g
           id="g3992"
           transform="translate(435.5273,242.6289)"><path
             d="M 0,0 C -0.376,1.411 -1.552,2.305 -3.032,2.305 -4.443,2.305 -5.572,1.411 -6.021,0 L 0,0 z m -6.067,-2.54 c 0.4,-1.482 1.575,-2.399 3.035,-2.399 1.034,0 2.045,0.447 2.562,1.411 l 3.316,0 C 2.142,-5.997 0,-7.667 -3.01,-7.667 c -3.41,0 -6.21,2.822 -6.21,6.326 0,3.505 2.8,6.374 6.21,6.374 3.574,0 6.538,-2.775 6.092,-7.573 l -9.149,0 z"
             style="fill:#37ade2;fill-opacity:1;fill-rule:nonzero;stroke:none"
             id="path3994"
             inkscape:connector-curvature="0" /></g><g
           id="g3996"
           transform="translate(445.3633,244.7461)"><path
             d="m 0,0 c -1.716,0 -3.104,-1.506 -3.104,-3.481 0,-1.928 1.388,-3.411 3.104,-3.411 1.719,0 3.105,1.53 3.105,3.411 C 3.105,-1.553 1.719,0 0,0 m 6.209,-8.891 c 0,-4.021 -2.396,-6.539 -6.278,-6.539 -2.893,0 -5.41,1.67 -5.88,4.235 l 3.409,0 c 0.401,-0.964 1.624,-1.341 2.471,-1.341 2.187,0 3.174,1.434 3.174,3.598 l 0,0.588 C 2.164,-9.243 0.941,-9.761 -0.47,-9.761 c -3.149,0 -5.761,2.729 -5.761,6.304 0,3.598 2.612,6.325 5.761,6.325 1.483,0 2.752,-0.563 3.717,-1.552 l 0,1.294 2.962,0 0,-11.501 z"
             style="fill:#37ade2;fill-opacity:1;fill-rule:nonzero;stroke:none"
             id="path3998"
             inkscape:connector-curvature="0" /></g><g
           id="g4000"
           transform="translate(461.8105,242.6289)"><path
             d="M 0,0 C -0.376,1.411 -1.552,2.305 -3.032,2.305 -4.443,2.305 -5.572,1.411 -6.021,0 L 0,0 z m -6.067,-2.54 c 0.4,-1.482 1.575,-2.399 3.035,-2.399 1.034,0 2.045,0.447 2.562,1.411 l 3.316,0 C 2.142,-5.997 0,-7.667 -3.01,-7.667 c -3.41,0 -6.21,2.822 -6.21,6.326 0,3.505 2.8,6.374 6.21,6.374 3.574,0 6.538,-2.775 6.092,-7.573 l -9.149,0 z"
             style="fill:#37ade2;fill-opacity:1;fill-rule:nonzero;stroke:none"
             id="path4002"
             inkscape:connector-curvature="0" /></g><g
           id="g4004"
           transform="translate(563.2314,271.0898)"><path
             d="m 0,0 c 0,5.615 -4.552,10.166 -10.166,10.166 -5.615,0 -10.166,-4.551 -10.166,-10.166 0,-5.615 4.551,-10.166 10.166,-10.166 C -4.552,-10.166 0,-5.615 0,0"
             style="fill:#37ade2;fill-opacity:1;fill-rule:nonzero;stroke:none"
             id="path4006"
             inkscape:connector-curvature="0" /></g></g></g></g></svg>